<mxfile host="65bd71144e">
    <diagram id="EhwUXxbdtcYRQFSCFIGD" name="Page-1">
        <mxGraphModel dx="829" dy="741" grid="1" gridSize="10" guides="1" tooltips="1" connect="1" arrows="1" fold="1" page="1" pageScale="1" pageWidth="827" pageHeight="1169" math="0" shadow="0">
            <root>
                <mxCell id="0"/>
                <mxCell id="1" parent="0"/>
                <mxCell id="2" value="" style="rounded=0;whiteSpace=wrap;html=1;" vertex="1" parent="1">
                    <mxGeometry x="90" y="160" width="510" height="400" as="geometry"/>
                </mxCell>
                <mxCell id="3" value="[場所詳細]" style="text;html=1;strokeColor=none;fillColor=none;align=center;verticalAlign=middle;whiteSpace=wrap;rounded=0;fontSize=21;" vertex="1" parent="1">
                    <mxGeometry x="240" y="175" width="170" height="30" as="geometry"/>
                </mxCell>
                <mxCell id="19" value="tab1" style="rounded=0;whiteSpace=wrap;html=1;" vertex="1" parent="1">
                    <mxGeometry x="120" y="230" width="50" height="20" as="geometry"/>
                </mxCell>
                <mxCell id="20" value="tab2" style="rounded=0;whiteSpace=wrap;html=1;" vertex="1" parent="1">
                    <mxGeometry x="170" y="230" width="50" height="20" as="geometry"/>
                </mxCell>
                <mxCell id="21" value="tab3" style="rounded=0;whiteSpace=wrap;html=1;" vertex="1" parent="1">
                    <mxGeometry x="220" y="230" width="50" height="20" as="geometry"/>
                </mxCell>
                <mxCell id="22" value="tab5" style="rounded=0;whiteSpace=wrap;html=1;" vertex="1" parent="1">
                    <mxGeometry x="320" y="230" width="50" height="20" as="geometry"/>
                </mxCell>
                <mxCell id="23" value="tab4" style="rounded=0;whiteSpace=wrap;html=1;" vertex="1" parent="1">
                    <mxGeometry x="270" y="230" width="50" height="20" as="geometry"/>
                </mxCell>
                <mxCell id="25" value="image" style="rounded=1;whiteSpace=wrap;html=1;arcSize=4;" vertex="1" parent="1">
                    <mxGeometry x="120" y="280" width="262.5" height="210" as="geometry"/>
                </mxCell>
                <mxCell id="26" value="Text" style="text;html=1;strokeColor=default;fillColor=none;align=center;verticalAlign=middle;whiteSpace=wrap;rounded=0;" vertex="1" parent="1">
                    <mxGeometry x="390" y="280" width="200" height="210" as="geometry"/>
                </mxCell>
            </root>
        </mxGraphModel>
    </diagram>
</mxfile>